<svg  version="1.1" x="0px" y="0px" viewBox="0 0 100 100" enable-background="new 0 0 100 100" xml:space="preserve" style="max-width:100%" height="100%"><g display="none" style="" fill="currentColor"><rect x="-137.382" y="-128.38" display="inline" fill="currentColor" stroke="currentColor" stroke-width="0.4634" stroke-miterlimit="10" width="1226.941" height="1582.379" style=""></rect></g><g style="" fill="currentColor"><g style="" fill="currentColor"><polygon points="33.641,14.43 34.702,15.49 36.602,13.591 38.502,15.49 39.562,14.43 40.623,13.369 38.723,11.469 40.623,9.57     39.562,8.509 38.502,7.448 36.602,9.348 34.702,7.448 33.641,8.509 32.581,9.57 34.481,11.469 32.581,13.369   " style="" fill="currentColor"></polygon><polygon points="88.13,43.121 87.07,42.06 85.17,43.96 83.27,42.06 82.209,43.121 81.149,44.181 83.049,46.081 81.149,47.981     83.27,50.102 85.17,48.202 87.07,50.102 88.131,49.042 89.191,47.981 87.291,46.081 89.191,44.181   " style="" fill="currentColor"></polygon><polygon points="18.851,54.122 16.951,52.222 18.851,50.322 16.73,48.201 14.83,50.101 12.93,48.201 10.809,50.322 12.709,52.222     10.809,54.122 12.93,56.243 14.83,54.343 16.73,56.243   " style="" fill="currentColor"></polygon><path d="M26.119,43.383c0,7.838,3.879,14.981,10.421,19.275v13.115h25.33V62.658c6.542-4.293,10.42-11.437,10.42-19.275    c0-12.729-10.356-23.086-23.085-23.086S26.119,30.654,26.119,43.383z M49.205,50.96c-4.178,0-7.577-3.399-7.577-7.577    s3.399-7.577,7.577-7.577s7.577,3.399,7.577,7.577S53.383,50.96,49.205,50.96z M69.29,43.383c0,7.065-3.625,13.482-9.698,17.166    l-0.722,0.438v11.787h-8.165V53.842c5.129-0.73,9.077-5.128,9.077-10.458c0-5.842-4.735-10.577-10.577-10.577    s-10.577,4.735-10.577,10.577c0,5.331,3.948,9.728,9.077,10.459v18.932H39.54V60.987l-0.722-0.438    c-6.073-3.684-9.699-10.101-9.699-17.166c0-11.075,9.011-20.086,20.086-20.086S69.29,32.308,69.29,43.383z" style="" fill="currentColor"></path><path d="M60.23,78.728H38.179c-0.829,0-1.5,0.671-1.5,1.5s0.671,1.5,1.5,1.5H60.23c0.829,0,1.5-0.671,1.5-1.5    S61.059,78.728,60.23,78.728z" style="" fill="currentColor"></path><path d="M61.73,86.124c0-0.829-0.671-1.5-1.5-1.5H38.179c-0.829,0-1.5,0.671-1.5,1.5s0.671,1.5,1.5,1.5H60.23    C61.059,87.624,61.73,86.952,61.73,86.124z" style="" fill="currentColor"></path><path d="M63.223,11.004c0-2.494-2.029-4.523-4.524-4.523s-4.524,2.029-4.524,4.523c0,2.495,2.029,4.524,4.524,4.524    S63.223,13.499,63.223,11.004z M57.176,11.004c0-0.84,0.684-1.523,1.524-1.523s1.524,0.684,1.524,1.523    c0,0.84-0.684,1.524-1.524,1.524S57.176,11.844,57.176,11.004z" style="" fill="currentColor"></path><path d="M77.54,67.399c2.495,0,4.524-2.029,4.524-4.524s-2.029-4.524-4.524-4.524c-2.494,0-4.523,2.029-4.523,4.524    S75.046,67.399,77.54,67.399z M77.54,61.351c0.84,0,1.524,0.684,1.524,1.524s-0.684,1.524-1.524,1.524    c-0.84,0-1.523-0.684-1.523-1.524S76.7,61.351,77.54,61.351z" style="" fill="currentColor"></path><path d="M18.691,24.531c-2.495,0-4.524,2.029-4.524,4.524s2.029,4.524,4.524,4.524s4.524-2.029,4.524-4.524    S21.186,24.531,18.691,24.531z M18.691,30.578c-0.84,0-1.524-0.684-1.524-1.524s0.684-1.524,1.524-1.524s1.524,0.684,1.524,1.524    S19.531,30.578,18.691,30.578z" style="" fill="currentColor"></path><path d="M78.425,29.113c2.495,0,4.524-2.029,4.524-4.524s-2.029-4.524-4.524-4.524s-4.524,2.029-4.524,4.524    S75.93,29.113,78.425,29.113z M78.425,23.065c0.84,0,1.524,0.684,1.524,1.524s-0.684,1.524-1.524,1.524s-1.524-0.684-1.524-1.524    S77.584,23.065,78.425,23.065z" style="" fill="currentColor"></path><path d="M58.381,92.019c0-0.829-0.671-1.5-1.5-1.5H41.529c-0.829,0-1.5,0.671-1.5,1.5s0.671,1.5,1.5,1.5h15.352    C57.709,93.519,58.381,92.848,58.381,92.019z" style="" fill="currentColor"></path><path d="M23.133,72.707c2.495,0,4.524-2.029,4.524-4.524s-2.029-4.524-4.524-4.524s-4.524,2.029-4.524,4.524    S20.638,72.707,23.133,72.707z M23.133,66.659c0.84,0,1.524,0.684,1.524,1.524s-0.684,1.524-1.524,1.524s-1.524-0.684-1.524-1.524    S22.293,66.659,23.133,66.659z" style="" fill="currentColor"></path></g></g></svg>